<svg width="17" height="17" viewBox="0 0 17 17" fill="none" xmlns="http://www.w3.org/2000/svg">
<path d="M8.70651 14.3265L14.9611 7.69889L14.9612 7.69874C15.6467 6.9717 15.9805 6.01417 15.9805 5.07237C15.9805 4.13047 15.6465 3.17445 14.9626 2.44311L14.9627 2.44308L14.9585 2.43877C14.2689 1.71878 13.3592 1.34816 12.4396 1.34816C11.5249 1.34816 10.6095 1.71824 9.92379 2.44027L9.92243 2.44171L5.01777 7.64711L4.99951 7.65702L4.94433 7.71577L1.75501 11.1119L1.75499 11.1119L1.75156 11.1156C1.28135 11.6266 1.02036 12.2956 1.02036 12.99C1.02036 13.6844 1.28135 14.3535 1.75156 14.8644L1.75199 14.8649L1.76987 14.8843L1.77573 14.8906L1.7818 14.8968C2.26944 15.39 2.90935 15.6568 3.56096 15.6568C4.22155 15.6568 4.88337 15.38 5.36856 14.8708L5.37074 14.8685L8.95682 11.0569L8.97435 11.0426L8.99682 11.0188L12.8797 6.90625L12.8797 6.90631L12.8858 6.89959C13.1371 6.62361 13.2751 6.26321 13.2726 5.89017M8.70651 14.3265L12.5161 5.22094L12.8829 4.88117C12.8832 4.88151 12.8836 4.88186 12.8839 4.88221C13.1373 5.15635 13.2764 5.51696 13.2726 5.89017M8.70651 14.3265C8.67313 14.3635 8.65463 14.4116 8.65463 14.4615C8.65463 14.5119 8.67348 14.5604 8.70747 14.5975C8.73639 14.6285 8.76645 14.6375 8.79008 14.6375C8.81361 14.6375 8.84081 14.6288 8.86647 14.6005L8.87272 14.5937L8.87278 14.5937L15.1255 7.96366L15.1263 7.96276C15.8736 7.1743 16.2502 6.13491 16.2502 5.07237C16.2502 4.01442 15.8734 2.97074 15.1264 2.18292L15.1255 2.18193C14.3827 1.39428 13.4106 1.00124 12.4396 1.00124C11.4724 1.00124 10.4963 1.39446 9.75323 2.18202L5.21333 7.00109L5.15834 7.05947L5.14048 7.06916L1.58249 10.8469L1.58213 10.8473C1.02759 11.4349 0.750122 12.207 0.750122 12.988C0.750122 13.7757 1.02859 14.5501 1.57969 15.1258L1.58225 15.1285L1.58224 15.1285L1.61598 15.1643C2.15948 15.7236 2.8615 15.9988 3.56094 15.9988C4.27253 15.9988 4.99507 15.7101 5.53836 15.1298L5.54 15.1281L9.08983 11.373L9.20132 11.1407H9.3086L13.0434 7.17176C13.369 6.82506 13.5494 6.36683 13.5477 5.89121L13.5477 5.88938C13.5477 5.4175 13.3751 4.9558 13.0459 4.61052L13.0376 4.60175L13.0377 4.60166C12.8906 4.43966 12.7113 4.31019 12.5112 4.22156C12.3111 4.13293 12.0948 4.0871 11.8759 4.087C11.4557 4.08706 11.0389 4.25432 10.7107 4.60645L10.7087 4.60861L10.7087 4.60861L5.12309 10.5308C5.12301 10.5309 5.12293 10.531 5.12285 10.5311C5.06101 10.5972 5.06146 10.7267 5.12282 10.7919L5.12792 10.7973L5.13285 10.8028C5.14188 10.813 5.15297 10.8212 5.16538 10.8268C5.17779 10.8323 5.19125 10.8352 5.20486 10.8352C5.21848 10.8352 5.23194 10.8323 5.24435 10.8268C5.25676 10.8212 5.26785 10.813 5.27688 10.8028L5.28224 10.7968L5.28779 10.7909L10.8775 4.88279C11.0019 4.74403 11.1536 4.6325 11.3233 4.55525L11.5305 5.01029L8.70651 14.3265ZM13.2726 5.89017C13.2726 5.89226 13.2726 5.89435 13.2726 5.89644L12.7726 5.88932L13.2726 5.88389C13.2726 5.88598 13.2726 5.88807 13.2726 5.89017Z" fill="#283168" stroke="#6F7381"/>
</svg>
